<svg width="842" height="330" viewBox="0 0 842 330" fill="none" xmlns="http://www.w3.org/2000/svg">
<path d="M821.137 319.415C821.137 324.97 637.318 329.479 410.566 329.479C183.814 329.479 0 324.975 0 319.415C0 313.856 183.818 309.357 410.566 309.357C637.314 309.357 821.137 313.861 821.137 319.415Z" fill="#5DB9F4"/>
<path d="M647.521 50.4853L650.965 48.1577C650.965 48.1577 641.977 33.357 642.904 20.6037C643.39 13.8689 632.366 3.95277 629.436 5.4861C629.257 5.41724 619.646 5.69727 618.793 27.6873L616.748 53.4418L627.134 62.651C627.134 62.651 633.682 51.4126 642.005 56.3524C650.328 61.2921 652.886 61.1406 652.886 61.1406C652.886 61.1406 647.521 52.8542 647.521 50.4853Z" fill="#002B32"/>
<path d="M640.413 48.6993C640.413 48.6993 631.224 44.1223 623.883 49.0803L624.575 54.5572L632.146 70.6939L639.386 69.0642L642.894 52.0368L640.413 48.6993Z" fill="#411026"/>
<path d="M599.007 217.123C599.007 217.123 632.288 204.108 663.208 216.737L649.002 94.6213L621.792 100.759L599.007 217.123Z" fill="#E6F4FF"/>
<path d="M677.194 314.889C675.474 310.298 674.442 303.412 672.264 294.12C672.007 293.027 671.659 291.466 671.242 289.57C668.412 289.203 665.501 290.599 663.13 291.88C664.065 294.395 665.322 297.393 665.39 298.481C665.56 301.107 664.758 301.355 664.758 301.355C664.776 305.886 666.175 310.739 667.11 311.68C668.316 312.887 669.655 318.86 670.801 318.86C671.948 318.86 681.628 319.93 681.628 319.93C681.885 317.712 678.918 319.475 677.194 314.889Z" fill="#E5BE9C"/>
<path d="M146.901 211.283H136.827V260.8H146.901V211.283Z" fill="#282C3C"/>
<path d="M145.713 260.8H138.014V300.194H145.713V260.8Z" fill="#50576D"/>
<path d="M179.16 178.744C179.66 178.817 181.177 173.726 181.255 173.111C181.387 172.245 181.335 171.361 181.104 170.516C180.872 169.672 180.466 168.885 179.912 168.208C176.253 163.47 170.268 160.977 164.179 159.94C156.251 158.585 147.456 158.64 139.376 158.393C125.601 157.966 108.708 157.424 97.4418 166.009C91.9851 170.173 93.269 173.464 96.1945 179.451C87.0969 181.287 86.6338 183.477 93.2827 185.299C96.0065 186.043 97.882 188.334 97.882 190.937V191.648C97.882 207.037 111.505 219.515 128.316 219.515H148.13C164.94 219.515 178.564 207.037 178.564 191.648C178.564 188.88 180.678 186.516 183.621 185.901C188.079 184.969 190.642 183.881 190.642 182.724C190.642 181.204 186.336 179.822 179.16 178.744ZM139.706 206.996C125.821 206.996 114.559 200.435 114.468 192.319H164.945C164.853 200.435 153.596 206.996 139.706 206.996Z" fill="#18AEE3"/>
<path d="M183.154 312.134C183.156 311.77 183.086 311.408 182.949 311.07C182.811 310.732 182.608 310.425 182.352 310.166C182.095 309.907 181.79 309.7 181.454 309.559C181.118 309.418 180.758 309.345 180.393 309.343L146.951 297.761V295.966H137.377V297.54L103.27 310.059C102.534 310.076 101.834 310.385 101.325 310.918C100.816 311.45 100.539 312.164 100.555 312.901V314.347H111.827V311.005L138.4 303.123H140.151L140.848 310.702H138.913C138.199 310.719 137.521 311.018 137.028 311.534C136.535 312.051 136.266 312.742 136.281 313.457V314.352H148.648V313.457C148.663 312.743 148.396 312.052 147.903 311.536C147.41 311.019 146.734 310.72 146.021 310.702H143.998L144.654 303.123H145.369L171.846 310.45L171.901 313.792L183.172 313.581L183.154 312.134Z" fill="#282C3C"/>
<path d="M168.7 164.994C159.093 161.285 148.038 161.62 137.789 161.702C135.043 161.725 132.3 161.744 129.554 161.785C117.535 161.95 94.6261 163.869 96.176 179.23C96.1852 179.304 96.1897 179.372 96.2035 179.446C96.2035 179.446 102.201 181.457 106.796 185.561C111.391 189.665 113.156 200.688 113.197 200.867C113.596 202.18 114.369 203.348 115.421 204.227C120.924 209.259 130.099 210.81 137.675 210.755C142.916 210.714 148.982 210.484 153.889 208.846C169.081 203.777 164.257 189.665 168.847 185.561C171.99 182.865 175.458 180.574 179.169 178.739C179.169 178.739 181.026 169.75 168.7 164.994ZM139.706 206.995C125.821 206.995 114.559 200.435 114.467 192.319H164.945C164.853 200.435 153.595 206.995 139.706 206.995Z" fill="#0C8DBB"/>
<path d="M358.498 208.905H348.423V258.422H358.498V208.905Z" fill="black"/>
<path d="M357.31 258.417H349.611V292.876H357.31V258.417Z" fill="#50576D"/>
<path d="M390.757 176.361C391.256 176.434 392.77 171.343 392.852 170.728C392.983 169.862 392.93 168.978 392.698 168.133C392.466 167.288 392.059 166.502 391.504 165.825C387.845 161.087 381.861 158.594 375.776 157.557C367.848 156.203 359.053 156.262 350.973 156.01C337.194 155.583 320.301 155.041 309.039 163.626C303.577 167.79 304.861 171.081 307.791 177.068C298.694 178.904 298.231 181.094 304.884 182.912C307.603 183.656 309.479 185.946 309.479 188.549V189.261C309.479 204.654 323.102 217.132 339.913 217.132H359.727C376.537 217.132 390.161 204.654 390.161 189.261C390.161 186.493 392.274 184.128 395.218 183.513C399.675 182.581 402.234 181.493 402.234 180.336C402.239 178.826 397.933 177.444 390.757 176.361ZM351.303 204.613C337.418 204.613 326.156 198.048 326.065 189.936H376.546C376.45 198.052 365.188 204.613 351.303 204.613Z" fill="#18AEE3"/>
<path d="M394.751 307.011C394.723 305.28 393.485 303.898 391.99 303.93L358.548 291.154V289.171H348.974V290.906L314.867 304.715C313.367 304.715 312.152 306.12 312.152 307.851V309.449H323.423V305.762L349.996 297.067H351.748L352.445 305.427H350.51C349.056 305.427 347.882 306.791 347.882 308.466V309.453H360.245V308.466C360.245 306.791 359.066 305.427 357.617 305.427H355.595L356.255 297.067H356.971L383.447 305.152L383.502 308.838L394.773 308.608L394.751 307.011Z" fill="#282C3C"/>
<path d="M380.297 162.616C370.69 158.906 359.635 159.242 349.386 159.324C346.64 159.347 343.897 159.366 341.151 159.407C329.132 159.572 306.223 161.491 307.768 176.852C307.773 176.924 307.782 176.996 307.796 177.068C307.796 177.068 313.794 179.079 318.384 183.183C322.974 187.287 324.744 198.314 324.785 198.488C325.183 199.802 325.956 200.97 327.009 201.849C332.512 206.881 341.687 208.432 349.262 208.377C354.504 208.34 360.566 208.106 365.472 206.467C380.664 201.394 375.84 187.287 380.43 183.183C383.572 180.488 387.038 178.196 390.747 176.361C390.747 176.361 392.618 167.367 380.297 162.616ZM351.303 204.613C337.418 204.613 326.156 198.048 326.064 189.936H376.546C376.45 198.052 365.188 204.613 351.303 204.613Z" fill="#0E89B5"/>
<path d="M536.383 215.011H526.309V264.523H536.383V215.011Z" fill="#282C3C"/>
<path d="M535.201 264.527H527.497V298.986H535.201V264.527Z" fill="#50576D"/>
<path d="M572.632 309.426C572.586 308.736 572.27 308.092 571.752 307.634C571.234 307.177 570.556 306.943 569.867 306.983L536.425 296.851V295.281H526.85V296.658L492.743 307.608C492.054 307.578 491.381 307.823 490.872 308.29C490.363 308.756 490.06 309.406 490.029 310.096V311.363H501.3V308.439L527.873 301.543H529.625L530.322 308.172H528.386C527.719 308.144 527.067 308.381 526.575 308.833C526.082 309.285 525.789 309.914 525.759 310.582V311.363H538.126V310.582C538.095 309.914 537.801 309.285 537.307 308.833C536.814 308.381 536.162 308.144 535.494 308.172H533.472L534.127 301.543H534.843L561.319 307.952L561.374 310.876L572.646 310.693L572.632 309.426Z" fill="#282C3C"/>
<path d="M561.228 213.762C560.687 211.94 558.852 212.761 557.491 213.165L556.775 213.28C554.652 193.149 535.145 182.067 518.087 186.135C516.331 176.921 511.975 170.085 496.183 168.905C491.47 168.531 486.732 168.619 482.036 169.167C480.972 169.292 479.997 169.824 479.316 170.653C478.635 171.482 478.301 172.542 478.384 173.612C478.467 174.682 478.96 175.679 479.761 176.392C480.562 177.106 481.607 177.481 482.678 177.44C482.536 177.444 492.909 176.737 501.158 178.854C507.302 180.525 508.128 182.669 509.448 189.555C511.416 200.15 510.838 211.894 516.12 216.223C523.801 222.214 563.122 220.143 561.228 213.762ZM521.251 209.722C521.361 209.745 521.293 209.718 521.361 209.773C521.324 209.758 521.287 209.741 521.251 209.722ZM521.444 209.809C519.807 203.635 519.481 197.423 518.876 191.768C530.344 189.894 542.546 194.026 548.819 204.369C549.136 205.04 551.103 207.473 552.859 213.615C543.445 213.909 526.823 212.183 521.444 209.809Z" fill="#18AEE3"/>
<path d="M184.32 154.067C181.243 151.758 177.111 138.867 176.116 136.475C169.788 121.39 161.521 102.696 155.271 103.504C146.366 104.661 144.738 111.35 146.797 121.642C147.663 125.967 158.435 148.333 159.797 147.668C165.845 156.537 173.035 164.456 179.248 166.416C183.793 167.853 189.625 167.794 195.293 167.11C195.674 163.979 196.371 160.843 196.522 157.708C191.886 157.386 187.388 156.372 184.32 154.067Z" fill="#2FBFF1"/>
<path d="M231.003 166.197L227.339 160.986C227.339 160.986 220.851 155.969 216.096 156.226C216.096 156.226 206.122 158.351 196.749 157.681C196.598 160.816 195.897 163.947 195.521 167.083C202.534 166.147 209.445 164.559 216.164 162.341C216.164 162.341 223.487 162.405 225.161 165.618C226.835 168.832 227.601 171.086 227.922 170.765C228.243 170.443 226.83 165.297 226.83 165.297C226.83 165.297 228.875 171.215 229.522 171.215C230.168 171.215 228.82 166.582 228.82 166.582L227.023 163.172L230.168 166.775C230.168 166.775 230.04 169.672 230.618 169.672C231.196 169.672 231.003 166.197 231.003 166.197Z" fill="#F9AD15"/>
<path d="M169.021 191.419C169.021 191.419 211.698 216.159 211.698 218.009C211.698 219.859 182.08 292.518 182.08 292.518L183.185 305.762C183.185 305.762 190.178 311.606 188.151 311.606H180.425C180.425 311.606 177.848 305.372 176.197 303.618C174.546 301.865 170.676 297.581 170.676 297.581L176.197 290.764L173.437 290.571L190.362 225.12L165.71 211.43L157.112 192.589L169.021 191.419Z" fill="#282C3C"/>
<path d="M127.646 207.872L127.014 212.178L154.687 223.311L157.631 291.113H160.208L157.814 305.689C157.814 305.689 155.586 312.713 156.205 313.36C156.824 314.007 167.013 313.36 167.013 313.36L165.724 291.113L167.013 290.92C167.013 290.92 172.534 217.844 172.534 213.051C172.534 208.258 156.209 192.53 156.209 192.53L127.646 207.872Z" fill="#282C3C"/>
<path d="M148.006 100.819C143.599 100.759 124.569 101.407 119.901 116.648C114.61 133.914 108.635 195.174 126.101 212.757C126.101 212.757 159.873 191.24 175.569 195.463C175.569 195.463 153.568 176.315 158.594 159.641C162.092 148.031 165.009 118.7 162.638 109.514C160.923 102.885 154.783 100.906 148.006 100.819Z" fill="#18AEE3"/>
<path opacity="0.42" d="M157.989 162.506C157.677 162.323 157.375 162.124 157.085 161.909C154.027 159.609 117.545 115.156 119.603 125.449C120.594 130.393 124.083 144.446 129.962 153.517C133.021 159.26 146.071 175.282 152.119 177.192C154.792 178.037 157.966 178.018 161.313 177.458C158.901 172.753 157.356 167.569 157.989 162.506Z" fill="#5F557B"/>
<path d="M158.589 159.636C160.872 148.527 164.224 120.183 162.633 109.509C165.916 121.115 162.812 147.847 158.589 159.636Z" fill="#18AEE3"/>
<path d="M138.533 80.4036C138.533 80.4036 137.088 93.951 138.129 102.843C138.256 103.936 138.631 104.986 139.227 105.911C139.822 106.836 140.622 107.611 141.564 108.178C145.397 110.487 152.078 113.889 154.587 111.323L151.386 90.1223L138.533 80.4036Z" fill="#DFB48F"/>
<path d="M138.533 80.4036L151.386 90.1269L153.009 100.883C147.965 101.54 141.949 94.7682 139.812 85.8345C139.465 84.4032 138.997 83.0041 138.414 81.6523C138.487 80.8535 138.533 80.4036 138.533 80.4036Z" fill="#E5BE9C"/>
<path d="M155.513 61.1037C155.78 61.3415 156.007 61.6223 156.182 61.9347C157.306 63.771 158.736 68.1139 158.379 73.4576C157.938 79.9674 157.567 93.6022 152.812 94.4469C148.057 95.2916 140.541 89.9065 138.656 82.2399C136.772 74.5732 132.81 71.277 134.58 64.8177C136.35 58.3584 155.513 61.1037 155.513 61.1037Z" fill="#E5BE9C"/>
<path d="M155.513 61.1037C155.513 61.1037 136.355 58.3584 134.58 64.8177C132.805 71.277 136.772 74.5732 138.656 82.2399C140.358 81.7854 143.049 81.5604 141.564 72.2824C143.013 67.3151 145.888 67.8109 146.388 65.6257C150.831 66.5944 151.358 68.9219 151.643 69.1836C153.656 72.4936 155.751 75.1792 158.191 76.3957C158.255 75.3215 158.314 74.3299 158.374 73.4576C158.755 67.8614 156.962 62.2009 155.513 61.1037Z" fill="#E5BE9C"/>
<path d="M138.656 82.2353C138.335 81.4732 138.858 83.0571 138.656 82.2353V82.2353Z" fill="#FD5E5A"/>
<path d="M141.266 72.6313C141.266 72.6313 142.297 68.7337 143.65 66.6356C145.003 64.5376 144.219 63.1053 144.219 63.1053C144.219 63.1053 150.414 63.1512 152.954 67.2692C155.494 71.3871 158.723 77.5343 164.817 73.453C170.911 69.3718 168.114 60.2957 166.568 60.5712C165.023 60.8466 163.368 59.7081 163.368 59.7081C163.368 59.7081 156.347 52.2388 153.39 52.7622C150.432 53.2855 152.491 49.9251 147.328 49.9802C142.164 50.0353 139.042 55.5947 139.042 55.5947C139.042 55.5947 136.391 53.3498 133.003 56.6644C129.614 59.979 133.209 69.9135 135.204 73.274C137.198 76.6345 138.331 82.5061 138.331 82.5061C138.331 82.5061 143.054 82.7448 141.266 72.6313Z" fill="#282C3C"/>
<path d="M138.294 71.3918C138.316 70.9724 138.468 70.5703 138.729 70.2419C138.991 69.9134 139.348 69.6751 139.751 69.5602C140.155 69.4453 140.584 69.4596 140.979 69.6012C141.374 69.7428 141.715 70.0045 141.953 70.3497C142.948 71.6213 143.696 73.274 142.71 74.8027C140.734 77.8694 138.033 75.3445 138.239 72.0253C138.253 71.8004 138.276 71.5892 138.294 71.3918Z" fill="#E5BE9C"/>
<path d="M142.893 72.8424C142.701 72.0895 141.531 70.0144 140.541 70.9739C139.551 71.9334 139.129 74.8348 141.078 75.0598C143.026 75.2848 143.081 73.5678 142.893 72.8424Z" fill="#DFB48F"/>
<path d="M153.44 84.5214L156.141 84.044L154.884 76.9328C154.879 76.8975 154.867 76.8636 154.849 76.833C154.831 76.8024 154.807 76.7756 154.778 76.7543C154.75 76.733 154.717 76.7175 154.683 76.7088C154.648 76.7 154.612 76.6981 154.577 76.7033C154.542 76.7102 154.509 76.7241 154.48 76.7442C154.45 76.7643 154.425 76.7901 154.406 76.82C154.387 76.85 154.373 76.8836 154.367 76.9188C154.361 76.9539 154.363 76.9899 154.371 77.0246L155.531 83.5803L153.344 83.9659C153.275 83.9836 153.215 84.0266 153.177 84.0864C153.138 84.1461 153.124 84.2181 153.136 84.2882C153.148 84.3583 153.186 84.4212 153.242 84.4644C153.299 84.5076 153.369 84.528 153.44 84.5214Z" fill="#282C3C"/>
<path d="M150.138 76.8456C150.28 77.649 150.89 78.2091 151.5 78.1035C152.11 77.9979 152.491 77.2542 152.353 76.4554C152.216 75.6566 151.601 75.0873 150.987 75.1975C150.372 75.3077 149.996 76.0376 150.138 76.8456Z" fill="#282C3C"/>
<path d="M155.948 76.6942C156.077 77.4333 156.608 77.9613 157.127 77.8649C157.645 77.7685 157.961 77.0982 157.833 76.3591C157.704 75.62 157.172 75.0966 156.654 75.1884C156.136 75.2802 155.815 75.9551 155.948 76.6942Z" fill="#282C3C"/>
<path d="M152.551 90.1362C152.855 90.0868 153.151 89.9957 153.431 89.8653C153.49 89.8303 153.533 89.7746 153.553 89.7091C153.572 89.6437 153.566 89.5733 153.537 89.5118C153.508 89.4524 153.458 89.4063 153.396 89.3832C153.335 89.36 153.267 89.3617 153.206 89.3879C153.11 89.443 150.895 90.5448 148.447 88.1346C148.424 88.111 148.397 88.0925 148.367 88.0802C148.337 88.068 148.304 88.0624 148.272 88.0637C148.239 88.065 148.207 88.0732 148.178 88.0878C148.149 88.1024 148.123 88.123 148.103 88.1484C148.059 88.2014 148.036 88.269 148.04 88.3379C148.043 88.4067 148.072 88.4718 148.121 88.5202C149.868 90.2464 151.565 90.3106 152.551 90.1362Z" fill="#282C3C"/>
<path d="M152.615 72.7139C152.615 72.7139 151.106 71.5524 149.565 71.8279C148.025 72.1033 147.172 74.2518 147.172 74.2518C147.172 74.2518 148.048 72.4752 149.428 72.5165C150.799 72.5578 152.785 73.6367 152.785 73.6367L152.615 72.7139Z" fill="#282C3C"/>
<path d="M171.424 160.334C166.481 160.073 161.616 159.081 158.36 156.634C155.297 154.334 149.46 139.979 149.707 139.832C143.315 124.664 135.63 105.249 129.311 106.071C120.411 107.223 117.549 115.147 119.604 125.444C120.594 130.388 128.261 141.801 134.135 150.877C134.169 150.858 134.204 150.841 134.241 150.827C140.202 159.453 147.213 167.069 153.289 168.988C158.181 170.531 164.564 170.347 170.631 169.516C170.425 166.458 170.851 163.396 171.424 160.334Z" fill="#2FBFF1"/>
<path d="M204.816 168.795L201.152 163.585C201.152 163.585 194.664 158.567 189.908 158.824C189.908 158.824 180.536 160.821 171.42 160.334C170.846 163.396 170.425 166.454 170.626 169.516C177.195 168.551 183.668 167.02 189.973 164.939C189.973 164.939 197.3 164.999 198.969 168.217C200.638 171.435 201.409 173.684 201.734 173.363C202.06 173.042 200.643 167.895 200.643 167.895C200.643 167.895 202.688 173.813 203.335 173.813C203.981 173.813 202.633 169.181 202.633 169.181L200.836 165.77L203.981 169.374C203.981 169.374 203.853 172.266 204.431 172.266C205.008 172.266 204.816 168.795 204.816 168.795Z" fill="#E5BE9C"/>
<path d="M330.839 93.5103C330.839 93.5103 312.396 117.892 307.178 122.832C308.966 126.275 315.597 128.915 317.027 132.551C325.465 129.507 329.867 120.628 331.265 117.405C333.035 113.338 330.839 93.5103 330.839 93.5103Z" fill="#EEE942"/>
<path d="M345.425 91.426C345.425 91.426 334.526 92.4773 330.816 93.4322C330.224 93.5837 331.132 113.641 331.265 117.405C331.683 129.167 342.307 153.402 335.085 172.945C332.471 180.029 369.857 178.225 367.775 172.798C366.798 170.25 363.056 163.327 362.823 154.215C362.557 143.876 365.913 131.063 366.757 124.898C368.417 112.732 367.225 96.6596 366.381 93.0971C366.386 93.1063 353.844 91.426 345.425 91.426Z" fill="#EEE942"/>
<path d="M330.816 93.437C330.559 93.8272 330.834 98.5099 330.834 98.4318C330.862 98.923 332.219 123.452 332.329 120.918C334.383 134.562 342.412 154.853 335.089 172.95C341.243 150.17 330.843 132.06 330.587 116.038C330.536 113.439 330.408 109.505 330.385 103.468C330.403 102.118 330.366 94.0063 330.816 93.437Z" fill="#E2F7FC"/>
<path d="M375.222 130.072C378.886 135.521 382.155 141.209 380.999 142.742C378.831 145.621 365.725 147.48 363.428 147.788L361.548 147.209C360.92 147.209 352.418 144.179 349.887 145.056C347.388 145.919 339.533 156.258 341.436 156.258C343.339 156.258 347.03 152.057 347.03 152.057C347.03 152.057 346.196 154.706 348.103 154.706C348.103 154.706 349.176 157.121 350.364 157.121C351.564 157.038 352.757 156.865 353.931 156.602C353.931 156.602 359.049 154.017 362.382 154.017C363.056 154.017 384.159 157.286 391.656 151.699C395.302 148.981 392.876 136.324 387.832 123.658C383.334 124.769 379.381 127.537 375.222 130.072Z" fill="#E5BE9C"/>
<path d="M387.832 123.654C383.334 124.769 379.381 127.533 375.222 130.072C376.052 131.306 376.864 132.551 377.606 133.763C380.789 131.554 386.103 128.019 389.052 126.872C388.667 125.802 388.26 124.729 387.832 123.654Z" fill="#E5BE9C"/>
<path d="M366.385 93.1064C366.385 93.1064 364.171 116.382 367.027 118.829C369.24 123.243 371.701 127.527 374.401 131.66C378.555 129.121 386.149 125.637 390.647 124.521C385.319 111.144 373.47 94.8326 366.385 93.1064Z" fill="#EEE942"/>
<path d="M335.562 171.013C335.562 171.013 320.333 184.537 318.701 190.611C317.087 196.629 316.573 206.61 324.726 206.61C328.546 206.61 336.951 205.122 345.824 205.761C355.885 206.481 366.418 209.204 369.178 206.61C374.373 201.725 378.964 194.766 378.964 188.237C378.964 181.709 367.266 171.013 367.266 171.013H335.562Z" fill="#EEE942"/>
<path d="M367.266 171.013H335.562C332.198 173.725 328.982 176.617 325.928 179.676C332.6 177.44 341.84 176.049 354.454 177.086C363.199 177.807 370.155 179.042 375.676 180.502C372.218 175.539 367.266 171.013 367.266 171.013Z" fill="#EEE942"/>
<path d="M320.975 295.208C320.764 299.978 318.715 305.459 318.715 305.459C318.55 305.845 321.076 311.262 322.869 311.156C325.336 311.019 328.752 305.266 328.752 305.266C328.752 305.266 326.918 297.237 330.073 283.634C330.431 282.097 330.898 280.008 331.453 277.497C328.156 275.963 324.969 274.228 321.517 273.718C321.205 285.278 321.035 293.803 320.975 295.208Z" fill="#E5BE9C"/>
<path d="M341.165 186.8C341.165 186.8 330.995 184.441 326.799 194.114C323.841 200.94 319.201 247.05 318.454 274.724C321.902 275.233 328.468 276.225 331.761 277.758C336.112 258.036 345.347 212.022 345.719 203.557C346.136 194.022 345.485 186.97 341.165 186.8Z" fill="#282C3C"/>
<path d="M328.752 305.266C328.752 305.266 328.39 312.602 322.851 312.809C318.949 312.956 318.219 307.245 318.715 305.455C318.715 305.455 323.305 312.001 328.752 305.266Z" fill="#282C3C"/>
<path d="M343.224 297.751C341.936 302.37 342.183 308.172 342.183 308.172C342.22 308.59 338.111 313.066 336.429 312.469C334.113 311.657 332.646 305.216 332.646 305.216C332.646 305.216 336.91 298.05 338.148 284.172C338.29 282.606 338.492 280.476 338.749 277.924C342.376 277.368 345.966 276.588 349.424 277.056C346.109 288.202 343.605 296.392 343.224 297.751Z" fill="#E5BE9C"/>
<path d="M357.82 188.559C357.82 188.559 368.284 189.11 369.265 199.517C369.958 206.858 359.98 252.22 352.042 278.874C348.585 278.41 342.197 277.377 338.57 277.933C340.574 257.88 345.943 211.517 348.232 203.323C350.809 194.086 353.638 187.526 357.82 188.559Z" fill="#282C3C"/>
<path d="M332.65 305.22C332.65 305.22 330.701 312.336 335.933 314.058C339.616 315.274 342.096 310.018 342.188 308.172C342.183 308.177 335.75 313.163 332.65 305.22Z" fill="#282C3C"/>
<path d="M333.522 63.2891C333.522 63.2891 335.113 81.0968 330.215 85.9952C325.318 90.8936 324.626 90.7651 322.929 90.2877C322.929 90.2877 324.057 93.3038 327.175 93.5058C327.395 93.5196 327.616 93.5196 327.835 93.5058C331.458 93.2809 327.551 96.2373 325.667 96.8984C323.782 97.5595 329.436 98.317 333.402 97.3713C337.369 96.4256 350.74 96.219 349.429 81.8268C348.113 67.4437 333.522 63.2891 333.522 63.2891Z" fill="#282C3C"/>
<path d="M344.054 82.4556L342.637 98.6934C342.637 98.6934 348.543 101.618 355.885 98.1976L352.95 71.5708L344.054 82.4556Z" fill="#DFB48F"/>
<path d="M344.054 82.4558L343.449 89.4384C344.163 89.4025 344.86 89.203 345.485 88.8554C351.13 85.8117 351.96 77.4334 352.061 72.6636L344.054 82.4558Z" fill="#DFB48F"/>
<path d="M333.879 54.4884C332.192 55.9656 331.072 57.9849 330.711 60.1994C330.128 63.8766 332.581 67.9992 332.581 71.098C332.581 74.1968 338.327 88.9517 345.485 85.4672C352.643 81.9828 352.061 70.7537 352.061 68.2333C352.061 65.713 348.58 57.0042 344.325 54.9704C340.07 52.9367 333.879 54.4884 333.879 54.4884Z" fill="#E5BE9C"/>
<path d="M333.512 73.1776C333.737 73.7147 334.223 74.0131 334.59 73.8479C334.957 73.6826 335.071 73.1087 334.847 72.567C334.622 72.0253 334.14 71.7315 333.774 71.8968C333.407 72.062 333.288 72.6405 333.512 73.1776Z" fill="#282C3C"/>
<path d="M336.419 72.9435C333.283 69.9548 332.357 72.7185 331.421 73.0674C332.201 72.9848 333.003 71.8371 333.874 71.9472C334.585 72.0299 335.686 72.5991 336.419 72.9435Z" fill="#282C3C"/>
<path d="M335.933 71.5708C336.714 73.4158 337.379 75.3079 337.923 77.2359C338.655 77.2453 339.372 77.0307 339.978 76.6207C339.157 77.5618 337.772 77.5297 337.699 77.5526C336.986 75.5976 336.396 73.5997 335.933 71.5708Z" fill="#282C3C"/>
<path d="M337.309 68.9953C337.509 67.9012 337.966 66.8704 338.643 65.9883C339.703 64.7213 342.637 64.5422 342.637 64.5422C342.637 64.5422 339.868 65.2171 339.189 66.0893C338.74 66.7353 338.415 67.4592 338.231 68.2241L337.309 68.9953Z" fill="#282C3C"/>
<path d="M335.718 70.2074C335.058 69.6021 334.255 69.1768 333.384 68.9725C332.178 68.7888 330.963 70.414 330.963 70.414C330.963 70.414 332.393 69.2525 333.196 69.4178C333.802 69.5929 334.367 69.8897 334.856 70.2901L335.718 70.2074Z" fill="#282C3C"/>
<path d="M344.348 78.7141C342.183 79.6277 341.193 80.555 338.341 80.4219C339.398 80.7673 340.534 80.7894 341.604 80.4852C342.674 80.181 343.629 79.5644 344.348 78.7141Z" fill="white"/>
<path d="M340.189 69.987C340.39 70.6894 340.959 71.1393 341.45 70.997C341.94 70.8546 342.179 70.166 341.972 69.4636C341.766 68.7612 341.202 68.3113 340.707 68.4582C340.212 68.6051 339.982 69.2892 340.189 69.987Z" fill="#282C3C"/>
<path d="M344.394 69.202C340.051 66.8286 339.519 69.7116 338.478 70.2258C339.386 70.0054 340.106 68.7292 341.161 68.6833C342.018 68.6328 343.444 68.9955 344.394 69.202Z" fill="#282C3C"/>
<path d="M342.697 72.5072C342.977 73.4713 344.238 73.9488 345.512 73.5769C346.787 73.205 347.59 72.1216 347.305 71.1575C347.021 70.1935 345.765 69.716 344.49 70.0879C343.215 70.4597 342.413 71.5432 342.697 72.5072Z" fill="#DFB48F"/>
<path d="M332.485 56.3339C332.43 56.1365 334.746 49.8563 340.455 48.9244C347.278 47.8088 355.344 52.8954 357.811 59.7908C360.278 66.6862 362.502 74.5549 369.247 76.5152C375.992 78.4754 377.226 88.4237 375.121 94.6672C373.016 100.911 366.565 99.3132 366.565 99.3132C366.565 99.3132 370.517 95.8654 369.467 94.8141C369.467 94.8141 366.454 100.658 363.043 99.4968C359.631 98.3353 358.26 96.4393 358.26 96.4393C358.26 96.4393 364.139 95.5349 360.269 92.2708C357.577 89.9984 356.206 87.9142 353.014 84.067C349.96 80.3852 351.561 70.5287 348.906 63.4543C348.422 63.8279 347.837 64.0456 347.227 64.0786C343.619 64.4551 345.26 61.82 341.826 57.881C335.933 54.5527 332.884 56.3477 332.485 56.3339Z" fill="#282C3C"/>
<path d="M333.397 54.8557C327.666 56.3018 325.414 61.9118 328.276 66.2318C328.766 66.9617 329.422 67.6503 330.293 67.7146V66.4751C329.972 66.5256 329.358 65.8553 329.16 65.6028C326.299 61.9531 328.065 56.6415 333.397 54.8557Z" fill="#282C3C"/>
<path d="M337.611 50.9397C334.998 51.0601 332.515 52.1195 330.619 53.9237C327.656 56.894 328.541 68.6052 330.619 70.3451C332.696 72.085 325.336 73.7285 329.743 73.7285C334.149 73.7285 341.555 51.3529 337.611 50.9397Z" fill="#282C3C"/>
<path d="M356.188 64.1567C355.187 67.01 354.69 70.016 354.72 73.04C355.161 81.7488 364.391 77.2038 366.95 77.3829C367.359 77.3964 367.759 77.5068 368.117 77.7051C368.475 77.9034 368.781 78.1839 369.009 78.5236C369.238 78.8632 369.383 79.2523 369.432 79.659C369.482 80.0656 369.434 80.4782 369.293 80.8627C368.835 82.4787 367.784 82.9699 367.239 83.6172C367.06 83.812 366.93 84.0469 366.861 84.3022C366.791 84.5576 366.784 84.8259 366.84 85.0846C366.896 85.3433 367.013 85.5847 367.181 85.7888C367.349 85.9928 367.564 86.1533 367.807 86.2569C369.71 87.2118 372.054 85.0496 372.824 87.6296C373.096 88.5632 373.109 89.5534 372.862 90.494C372.615 91.4346 372.117 92.2901 371.421 92.9687C372.234 92.3329 372.851 91.4805 373.202 90.5094C373.554 89.5382 373.624 88.4876 373.406 87.4781C372.943 85.3525 371.471 85.4535 369.444 85.605C368.193 85.6877 367.734 85.0817 367.835 84.6961C367.913 83.9386 369.655 83.6494 370.412 81.2024C370.711 80.3626 370.703 79.444 370.391 78.609C370.079 77.774 369.482 77.0763 368.706 76.6392C364.474 74.1923 355.041 82.9975 355.445 70.0468C355.524 68.0658 355.773 66.0953 356.188 64.1567Z" fill="#282C3C"/>
<path d="M348.301 65.9839C348.301 65.9839 348.158 62.6326 349.906 62.9126C351.653 63.1927 352.868 65.4835 352.024 67.7146C351.18 69.9458 348.062 68.9541 348.301 65.9839Z" fill="#DFB48F"/>
<path d="M348.984 66.5025C348.984 66.5025 348.745 64.4458 349.515 64.2576C350.286 64.0694 351.084 65.6761 350.919 66.7366C350.754 67.7971 349.098 67.7283 348.984 66.5025Z" fill="#E5BE9C"/>
<path d="M389.794 148.219C389.794 148.219 386.401 151.571 388.286 152.089C390.17 152.608 391.977 151.286 391.977 150.157C391.977 149.027 391.725 147.416 389.794 148.219Z" fill="#DFB48F"/>
<path d="M627.611 312.286C627.102 310.711 626.597 303.843 626.198 294.818C623.672 294.781 620.843 293.918 618.169 294.451C618.371 295.69 618.843 297.834 618.843 298.174C618.843 301.442 617.248 300.23 616.665 302.581C616.28 304.142 617.798 307.117 617.798 307.117C620.036 307.117 620.976 315.086 622.062 317.4C622.695 318.74 625.552 319.374 628.821 319.374C631.362 319.374 630.935 318.708 629.051 315.453C628.457 314.453 627.974 313.391 627.611 312.286Z" fill="#E5BE9C"/>
<path d="M660.576 216.43C660.255 215.048 651.359 139.621 648.03 111.791L630.074 111.167L620.151 152.319L643.761 226.828C642.959 233.714 643.266 239.264 645.444 248.675C647.242 256.443 654.615 282.409 659.022 294.276C661.397 292.995 668.665 290.461 671.242 289.566C661.2 227.282 663.951 230.987 660.576 216.43Z" fill="#282C3C"/>
<path d="M628.726 224.138L643.762 139.561L641.95 110.602H627.235C627.235 110.602 612.498 126.551 609.182 146.75C605.867 166.95 612.016 224.496 612.016 224.496C611.588 229.011 610.882 233.496 609.902 237.924C608.362 244.406 611.085 285.03 612.846 295.745C615.52 295.213 623.672 294.781 626.199 294.813C625.236 273.255 624.842 239.375 626.295 235.858C627.249 233.544 628.093 228.682 628.726 224.138Z" fill="#282C3C"/>
<path d="M648.544 114.789L624.218 114.266L627.236 110.602H648.544V114.789Z" fill="#282C3C"/>
<path d="M679.716 51.5825C680.064 49.3422 679.908 47.7997 679.216 47.1019C678.523 46.4041 678.863 45.9955 678.212 45.3482C677.561 44.7009 676.052 45.2885 675.859 43.5899C675.667 41.8913 676.13 32.1634 674.933 32.3929C673.736 32.6225 673.603 45.4997 673.122 45.9817C672.64 46.4638 671.769 46.9871 671.462 44.9763C671.155 42.9656 672.695 42.0061 672.076 41.3863C671.457 40.7666 669.683 42.8554 669.531 43.5899C669.531 43.5899 667.986 50.2282 669.531 54.7089C670.611 57.6954 671.268 60.8183 671.485 63.9869C671.709 70.5059 670.847 77.1901 668.848 87.3726C668.403 89.6358 666.377 89.0574 665.175 88.3871L659.668 96.9306C663.511 101.508 668.637 104.115 671.072 103.817C677.331 103.055 676.515 64.9097 676.515 64.9097C676.497 64.4414 676.506 64.7169 676.478 63.9869C676.391 61.6732 676.318 59.5522 676.318 59.2676C676.327 57.5644 679.372 53.8183 679.716 51.5825Z" fill="#E5BE9C"/>
<path d="M677.722 45.0772C677.722 45.0772 671.999 50.6688 673.1 51.7706C674.2 52.8724 678.79 46.9273 678.79 46.9273C678.79 46.9273 673.696 52.1241 674.594 53.0285C675.493 53.9329 679.9 49.5349 679.9 49.5349C679.9 49.5349 675.255 53.5335 676.089 53.9925C676.924 54.4516 679.9 51.261 679.9 51.261C680.125 50.6495 680.216 49.9965 680.166 49.3466C680.005 48.6259 680.267 48.3275 680.138 47.8776C679.912 47.3652 679.59 46.9009 679.189 46.5095C678.937 46.2616 678.841 44.6594 677.722 45.0772Z" fill="#F1DECD"/>
<path d="M664.698 87.0925C665.166 85.931 665.845 84.5446 664.382 83.53C662.387 82.139 662.461 83.1444 662.461 80.0594C662.461 77.1763 661.686 76.754 659.476 76.047C659.393 75.7853 659.315 75.5236 659.237 75.2573C656.463 65.7589 647.971 51.3162 645.325 50.1823C642.679 49.0484 642.005 56.256 642.005 56.256C642.005 56.256 659.031 99.4555 659.673 100.218L665.18 88.3825L664.753 87.143C664.735 87.1246 664.717 87.1108 664.698 87.0925Z" fill="#B7DAF4"/>
<path d="M619.366 308.209L619.504 318.91L618.316 318.943L616.826 306.74L619.366 308.209Z" fill="#1D1B22"/>
<path d="M644.628 50.4852C644.628 50.4852 639.226 46.2937 621.031 50.1225C620.141 50.3107 618.793 71.2632 618.793 71.2632C618.793 71.2632 624.86 104.028 623.145 112.7C623.145 112.7 635.947 123.337 651.102 115.932C651.102 115.932 649.227 88.6211 650.625 82.5428C652.024 76.4646 654.785 70.9602 650.91 64.6341C647.035 58.3079 644.628 50.4852 644.628 50.4852Z" fill="#282C3C"/>
<path d="M652.396 114.339C652.119 114.804 651.787 115.232 651.405 115.615C650.791 116.23 645.604 117.952 645.604 117.952L648.7 116.143C648.7 116.148 652.396 113.82 652.396 114.339Z" fill="#FD5E5A"/>
<path d="M618.582 299.904C619.568 305.891 623.493 317.694 625.782 317.698C628.877 317.708 629.06 317.547 629.042 315.453C630.927 318.708 633.068 320.375 630.528 320.375C627.263 320.375 622.164 320.572 621.535 319.227C620.444 316.913 619.853 308.149 617.615 308.149L618.307 318.933L617.12 318.965C617.12 318.965 615.363 304.114 615.749 302.636C616.285 300.607 617.954 300.267 618.582 299.904Z" fill="#393644"/>
<path d="M678.404 317.033C680.674 319.158 684.328 318.704 684.118 320.476C684.118 320.476 671.581 319.939 670.434 319.939C669.288 319.939 668.311 312.883 667.11 311.675C665.909 310.468 666.651 319.939 666.651 319.939H665.413C665.413 319.939 664.588 310.183 663.442 306.396C662.529 303.38 663.827 302.113 664.758 301.351C668.518 308.554 668.917 318.718 678.404 317.033Z" fill="#393644"/>
<path d="M782.633 72.5579C782.633 72.5579 779.822 89.0527 770.995 100.158C764.401 108.458 750.599 117.709 750.599 117.709L758.412 126.105L779.964 108.665L782.633 72.5579Z" fill="#18AEE3"/>
<path d="M794.435 57.1328H811.723L811.163 112.856L788.213 114.371L794.435 57.1328Z" fill="#260E0D"/>
<path d="M775.062 324.116C765.327 324.116 765.566 328.042 765.566 328.042H794.064C794.064 328.042 792.647 315.982 792.432 313.131H785.742C784.999 316.62 782.541 324.116 775.062 324.116Z" fill="#260E0D"/>
<path d="M822.7 325.558C813.837 325.558 812.021 315.022 811.769 313.131H805.367V314.049C805.367 315.357 803.703 329.479 803.703 329.479H832.202C832.202 329.479 832.44 325.558 822.7 325.558Z" fill="#260E0D"/>
<path d="M820.165 249.708L829.262 174.291L826.694 151.97H776.612L776.254 171.642L770.999 248.272C770.999 248.272 784.063 312.079 783.838 313.131H793.289C793.271 312.901 790.62 243.171 790.62 243.171L801.424 181.053L805.652 246.252C805.652 246.252 803.735 305.023 803.703 313.126H812.603C812.58 312.947 820.165 249.708 820.165 249.708Z" fill="#282C3C"/>
<path d="M827.029 154.903L826.694 151.97H776.612L776.566 154.541L787.08 158.048C795.606 160.904 804.791 161.133 813.447 158.705L827.029 154.903Z" fill="#0E0E0E"/>
<path d="M830.161 71.9519C824.713 65.9563 812.112 56.3845 798.218 58.6936L783.701 65.0106L779.432 95.7186L775.607 154.215L827.373 154.798L832.298 97.8533C832.298 97.8625 835.608 77.9475 830.161 71.9519Z" fill="#282C3C"/>
<path d="M796.453 44.912C796.453 44.912 796.302 56.9124 795.132 63.0228C794.683 65.387 795.788 67.8064 797.833 68.6787C799.738 69.4611 801.834 69.653 803.849 69.2295C810.365 68.013 810.585 60.8375 810.585 60.8375L808.389 38.9531L796.453 44.912Z" fill="#DFB48F"/>
<path d="M797.223 14.1488C794.511 16.6242 792.494 19.7676 791.372 23.2662C789.607 28.9817 788.062 33.1181 788.062 33.1181L789.937 34.3346C789.937 34.3346 788.442 42.3135 789.607 45.0358C791.372 49.1722 798.828 52.5143 807.27 43.2133C815.712 33.9123 816.437 25.7039 815.001 21.6915C813.566 17.6791 800.539 12.0829 797.223 14.1488Z" fill="#E5BE9C"/>
<path d="M809.925 23.0459C808.659 22.02 807.169 21.3087 805.576 20.9704C803.982 20.632 802.332 20.6763 800.759 21.0994C795.348 22.5593 793.528 20.3098 794.578 19.1529C794.578 19.1529 789.827 19.2723 788.062 15.0166C786.296 10.7609 786.736 -2.13012 795.128 0.303012C803.519 2.73615 801.823 8.57108 801.823 8.57108C801.823 8.57108 804.51 5.77527 807.05 7.23515C809.591 8.69503 809.26 10.7609 809.26 10.7609C809.26 10.7609 811.581 15.5032 814.781 16.1092C817.982 16.7152 817.652 23.7713 817.652 23.7713C817.652 23.7713 819.532 25.2312 818.207 30.3361C816.881 35.4411 809.068 43.2593 809.068 45.6924C809.068 45.6924 807.165 42.6166 808.71 37.6309C810.255 32.6453 810.255 29.7256 808.6 29.7256C806.945 29.7347 809.925 23.0459 809.925 23.0459Z" fill="#282C3C"/>
<path d="M807.536 33.031C807.536 33.031 808.073 28.835 809.274 28.835C810.476 28.835 811.595 29.2895 811.306 31.6629C811.017 34.0364 809.774 36.6807 808.201 35.5835C807.989 35.4609 807.803 35.2972 807.654 35.102C807.506 34.9068 807.397 34.684 807.335 34.4465C807.274 34.209 807.259 33.9615 807.294 33.7185C807.328 33.4755 807.411 33.2418 807.536 33.031Z" fill="#DFB48F"/>
<path d="M821.641 23.5967C821.525 23.2128 821.261 22.8909 820.908 22.7015C819.784 22.1736 818.285 23.3075 817.294 24.0926L817.125 23.8722C817.768 23.0527 818.572 22.3732 819.486 21.8752C819.785 21.7201 820.113 21.6306 820.448 21.6127C820.784 21.5948 821.12 21.649 821.433 21.7716C821.746 21.8942 822.029 22.0824 822.264 22.3235C822.498 22.5647 822.678 22.8532 822.792 23.1698L821.641 23.5967Z" fill="#121841"/>
<path d="M821.774 28.9451C821.89 28.2987 821.878 27.6357 821.738 26.994C821.022 23.8401 817.528 24.111 817.359 24.0192V23.8218C817.46 23.8585 822.407 22.8026 823.113 27.8984C823.186 28.346 823.205 28.8007 823.168 29.2527L821.774 28.9451Z" fill="#121841"/>
<path d="M796.265 26.815C796.265 27.8479 795.852 28.6835 795.339 28.6835C794.825 28.6835 794.412 27.8479 794.412 26.815C794.412 25.7821 794.83 24.9465 795.339 24.9465C795.848 24.9465 796.265 25.7775 796.265 26.815Z" fill="#282C3C"/>
<path d="M798.342 24.9694C797.777 24.441 797.064 24.0974 796.299 23.9843C795.534 23.8711 794.753 23.9937 794.059 24.3359L793.711 22.9908C794.482 22.6011 795.356 22.4624 796.21 22.594C797.064 22.7257 797.856 23.1212 798.475 23.7253L798.342 24.9694Z" fill="#282C3C"/>
<path d="M792.711 59.249L788.855 172.794H764.841L771.921 121.22L776.561 89.8652C776.561 89.8652 778.813 68.7796 783.705 65.0151C786.523 62.8186 789.538 60.8883 792.711 59.249Z" fill="#18AEE3"/>
<path d="M808.33 31.3416C808.33 31.3416 809.031 29.9184 809.655 30.125C810.278 30.3316 810.425 33.1825 809.311 34.3899C808.201 35.5881 807.261 33.614 808.33 31.3416Z" fill="#E5BE9C"/>
<path d="M811.984 58.634L809.457 172.799H835.173C835.173 172.799 836.14 82.3135 833.293 72.8518C830.445 63.3901 811.984 58.634 811.984 58.634Z" fill="#18AEE3"/>
<path d="M783.376 63.4727L794.436 57.1328L790.873 113.315L784.797 81.5606L786.939 80.1144L783.376 63.4727Z" fill="#18AEE3"/>
<path d="M810.755 114.082L811.723 57.1328L821.577 61.5262L816.207 80.0731L817.569 81.1198L810.755 114.082Z" fill="#18AEE3"/>
<path d="M765.561 129.64L729.913 102.921L767.67 99.4875L796.219 129.64H765.561Z" fill="#1E3340"/>
<path d="M785.421 118.301C785.421 118.301 789.295 119.168 790.726 120.702C792.556 122.662 796.893 125.843 798.714 125.843C800.534 125.843 808.298 126.601 808.298 126.601L809.6 135.154C809.6 135.154 780.633 128.511 779.271 127.051C777.91 125.591 786.063 128.134 786.063 127.487C786.063 126.84 776.236 126.105 776.745 124.462C777.254 122.818 785.81 126.674 786.567 125.857C787.324 125.04 776.236 123.686 776.236 121.95C776.236 120.215 787.278 124.462 787.278 124.462C787.278 124.462 787.479 123.58 784.494 122.166C781.509 120.752 778.611 119.618 779.271 118.907C779.932 118.195 787.571 122.699 788.58 121.615L785.421 118.301Z" fill="#E5BE9C"/>
<path d="M826.213 70.6435C826.213 70.6435 821.999 78.3515 822.843 89.4566C823.686 100.562 825.117 117.589 822.76 123.144C820.403 128.699 803.139 123.144 803.139 123.144V136.283C803.139 136.283 828.171 146.465 835.421 143.132C842.67 139.8 841.983 111.112 841.983 97.0453C841.983 82.979 830.835 60.5529 826.213 70.6435Z" fill="#18AEE3"/>
<path d="M826.213 70.6436C824.136 75.1104 822.769 81.7258 823.205 88.5937C823.984 98.9322 826.442 121.367 821.944 124.778C817.606 127.45 807.807 124.788 803.139 123.144C807.72 124.361 820.688 127.354 822.37 122.942C823.806 119.412 823.576 110.877 823.439 107.085C822.916 90.6871 820.908 84.9026 824.37 74.8947C824.855 73.4249 825.472 72.0021 826.213 70.6436Z" fill="#B7DAF4"/>
<path d="M791.578 40.9135L791.909 42.9794C796.09 42.5111 798.163 38.9624 798.163 38.9624C795.682 41.4414 791.578 40.9135 791.578 40.9135Z" fill="#282C3C"/>
<path d="M755.069 117.956C754.534 118.734 754.097 119.574 753.767 120.458C752.992 122.286 755.147 124.168 755.569 124.558C756.543 125.421 757.598 126.188 758.719 126.849C759.441 127.303 760.235 127.629 761.067 127.813C762.342 128.093 765.194 123.548 764.804 123.112C764.538 122.823 764.217 122.593 763.924 122.685C763.612 122.781 760.439 125.26 760.439 125.26C760.439 125.26 763.3 121.689 762.974 120.624C762.649 119.559 762.034 119.692 761.787 119.963C761.539 120.234 757.903 123.589 757.903 123.589C757.903 123.589 760.351 119.32 760.141 118.627C759.93 117.934 758.939 117.447 757.816 119.164C757.125 120.073 756.36 120.922 755.528 121.703C755.528 121.703 756.908 118.48 756.587 117.442C756.266 116.405 755.069 117.956 755.069 117.956Z" fill="#E5BE9C"/>
<path d="M272.997 181.884H267.307V311.606H272.997V181.884Z" fill="#CACACA"/>
<path d="M175.597 181.884H169.906V313.778H175.597V181.884Z" fill="#CACACA"/>
<path d="M566.482 180.901H560.791V311.358H566.482V180.901Z" fill="#CACACA"/>
<path d="M583.906 181.884H578.216V317.905H583.906V181.884Z" fill="#CACACA"/>
<path d="M247.639 175.649H190.403V178.363H247.639V175.649Z" fill="#282C3C"/>
<path d="M593.174 178.363H124.064V185.4H593.174V178.363Z" fill="#282C3C"/>
<path d="M249.084 114.706H186.941V167.611H249.084V114.706Z" fill="#1E3340"/>
<path d="M241.133 127.418H201.84V157.842H241.133V127.418Z" fill="#282C3C"/>
<path d="M235.14 133.317H218.013V150.464H235.14V133.317Z" fill="#18AEE3"/>
<path d="M231.223 146.548H225.106V176.921H231.223V146.548Z" fill="#18AEE3"/>
<path d="M236.116 174.713H196.483V178.363H236.116V174.713Z" fill="#18AEE3"/>
<path d="M218.013 133.317V150.464H225.107V174.713H224.387V150.891H217.266V133.317H218.013Z" fill="#595E7A"/>
<path d="M296.357 167.608H358.5V114.703H296.357V167.608Z" fill="#1E3340"/>
<path d="M304.307 157.841H343.6V127.418H304.307V157.841Z" fill="#282C3C"/>
<path d="M310.299 150.467H327.426V133.32H310.299V150.467Z" fill="#18AEE3"/>
<path d="M314.222 176.916H320.334V146.543H314.222V176.916Z" fill="#18AEE3"/>
<path d="M309.327 178.364H348.959V174.714H309.327V178.364Z" fill="#18AEE3"/>
<path d="M327.427 133.317V150.464H320.333V174.713H321.053V150.891H328.179V133.317H327.427Z" fill="#595E7A"/>
<path d="M440.985 167.608H503.128V114.703H440.985V167.608Z" fill="#1E3340"/>
<path d="M448.934 157.841H488.231V127.418H448.934V157.841Z" fill="#282C3C"/>
<path d="M454.931 150.467H472.058V133.32H454.931V150.467Z" fill="#18AEE3"/>
<path d="M453.951 178.364H493.588V174.714H453.951V178.364Z" fill="#18AEE3"/>
<path d="M472.057 133.317V150.464H464.959V174.713H465.679V150.891H472.805V133.317H472.057Z" fill="#595E7A"/>
<path d="M249.084 114.706H186.941V167.611L189.363 116.662L249.084 114.706Z" fill="#595E7A"/>
<path d="M464.959 150.464H458.306V175.585H464.959V150.464Z" fill="#18AEE3"/>
<path d="M623.883 49.0759C623.883 49.0759 635.911 167.914 623.2 202.483C615.785 222.65 608.522 224.271 603.753 222.122C600.272 220.552 598.195 216.916 598.232 213.092C598.36 199.949 599.475 157.511 608.205 127.988C618.793 92.1699 613.625 87.7169 613.625 81.7947C613.625 71.5342 615.217 56.6508 617.624 50.8067C617.954 49.9941 623.883 49.0759 623.883 49.0759Z" fill="#B7DAF4"/>
<path d="M631.302 47.9465C633.347 47.9098 635.603 48.4423 639.409 48.8555C639.762 48.8922 640.028 48.6581 640.413 48.6994C636.488 44.9441 621.603 42.9471 620.746 49.3329C614.881 92.8952 629.234 174.497 623.199 202.487C637.043 174.382 634.177 98.0277 626.01 54.3323C625.29 50.5128 627.418 48.0154 631.302 47.9465Z" fill="#B7DAF4"/>
<path d="M640.414 48.6995C648.783 58.1749 652.235 213.12 663.208 216.737C663.208 216.737 662.599 171.472 662.599 160.091C662.599 148.71 657.61 73.4623 655.221 67.1408C652.832 60.8192 645.325 50.1777 645.325 50.1777L640.414 48.6995Z" fill="#B7DAF4"/>
<path d="M640.413 48.6993C640.042 48.3734 639.047 47.9877 639.143 48.1851C643.94 58.4364 646.214 151.658 657.513 199.471C655.981 179.606 650.052 58.7303 640.413 48.6993Z" fill="#B7DAF4"/>
<path d="M637.667 122.699L638.368 122.194C638.368 122.194 641.28 122.226 642.505 121.62C643.729 121.014 645.224 121.041 644.669 121.62C644.114 122.198 641.354 122.832 641.908 124.328C642.459 125.834 637.667 122.699 637.667 122.699Z" fill="#E5BE9C"/>
<path d="M648.284 124.01C647.761 124.331 646.651 124.464 645.5 124.859C644.349 125.254 650.709 122.449 650.709 121.526C650.709 120.603 645.381 123.431 643.831 124.088C642.07 124.836 639.268 123.528 638.526 122.692C638.526 122.692 616.57 115.324 610.742 111.183C610.219 110.811 608.871 108.911 609.032 107.478C605.285 107.813 601.599 108.603 598.265 110.403C598.302 112.707 597.651 115.517 598.265 116.651C602.071 123.665 626.846 126.296 632.056 126.296C637.265 126.296 642.368 127.54 643.813 127.54C645.257 127.54 651.998 123.845 652.195 122.118C652.388 120.502 648.971 123.583 648.284 124.01Z" fill="#E5BE9C"/>
<path d="M611.291 87.8222C615.097 83.5252 616.418 72.0895 616.418 64.0556C616.418 56.0216 615.166 50.8019 615.166 50.8019C615.166 50.8019 606.719 50.4668 602.015 59.5153C597.081 69.0137 590.395 78.7737 596.728 109.312C600.066 107.517 605.133 107.319 608.879 106.98C609.732 99.2993 608.081 91.449 611.291 87.8222Z" fill="#B7DAF4"/>
<path d="M596.063 107.163C596.063 107.163 595.302 109.596 596.063 110.395C596.824 111.194 595.893 113.007 596.402 114.027C596.911 115.046 605.184 112.392 609.1 111.281C613.016 110.17 610.585 108.811 610.118 107.361C609.65 105.91 610.182 105.162 609.283 104.216C608.384 103.27 596.755 104.501 596.063 107.163Z" fill="#B7DAF4"/>
<path d="M597.076 110.685C600.062 109.486 605.679 107.544 608.838 108.008C609.333 108.082 609.21 108.876 608.714 108.77C608.632 108.77 607.073 108.265 602.877 109.128C600.915 109.534 598.978 110.053 597.076 110.685Z" fill="#B7DAF4"/>
<path d="M637.558 33.6002C637.975 34.0179 636.283 46.1285 637.957 49.489C637.957 49.489 642.368 66.8056 639.369 67.1636C636.764 67.4758 627.011 52.3491 626.488 49.9573C625.791 46.7391 626.415 31.2405 626.415 31.2405L637.558 33.6002Z" fill="#DFB48F"/>
<path d="M636.3 6.38582C636.3 6.38582 641.34 7.3453 641.94 11.6699C642.541 15.9944 643.38 19.5982 642.537 24.6435C641.693 29.6888 638.699 36.4144 633.778 37.4978C628.858 38.5812 623.699 30.4096 623.699 25.9657C623.699 21.5217 621.902 14.0754 625.259 9.50757C628.624 4.9397 636.3 6.38582 636.3 6.38582Z" fill="#E5BE9C"/>
<path d="M630.609 29.6475C633.264 30.8043 637.189 30.8319 637.189 30.8319C636.974 31.2286 636.72 31.6037 636.433 31.952C634.651 31.8761 632.887 31.5642 631.187 31.0247C630.955 30.5834 630.761 30.1225 630.609 29.6475Z" fill="white"/>
<path d="M631.183 31.0247C632.882 31.5664 634.646 31.8783 636.429 31.952C634.553 34.1923 632.563 33.6552 631.183 31.0247Z" fill="#2E0A29"/>
<path d="M636.346 26.7414C636.202 25.3628 636.132 23.9774 636.135 22.5913C636.372 24.0233 636.532 25.4669 636.617 26.9159C635.883 27.1179 635.003 27.5265 633.897 27.1087C634.732 27.212 635.579 27.0851 636.346 26.7414Z" fill="#282C3C"/>
<path d="M633.618 22.4583C633.482 22.0286 633.241 21.6394 632.918 21.3254C632.594 21.0114 632.199 20.7823 631.765 20.6587C630.119 20.2271 629.11 22.6006 627.982 22.5776C628.794 22.9954 630.092 21.6044 630.981 21.2509C631.21 21.1736 631.453 21.1483 631.692 21.1769C631.932 21.2055 632.162 21.2872 632.366 21.4161C632.848 21.6768 633.274 22.0311 633.618 22.4583Z" fill="#282C3C"/>
<path d="M630.642 21.742C630.661 21.8966 630.725 22.0424 630.825 22.1619C630.925 22.2814 631.057 22.3695 631.206 22.4155C631.354 22.4616 631.513 22.4637 631.663 22.4217C631.813 22.3796 631.947 22.2951 632.05 22.1784C632.153 22.0616 632.221 21.9176 632.244 21.7635C632.267 21.6094 632.246 21.4519 632.182 21.3099C632.118 21.1678 632.014 21.0472 631.883 20.9626C631.753 20.8781 631.6 20.833 631.445 20.833C631.332 20.8398 631.223 20.8687 631.121 20.9181C631.02 20.9675 630.93 21.0364 630.855 21.1208C630.781 21.2052 630.723 21.3036 630.687 21.4102C630.65 21.5168 630.635 21.6295 630.642 21.742Z" fill="#282C3C"/>
<path d="M637.282 22.9724C637.439 22.5488 637.697 22.1704 638.035 21.8709C638.372 21.5713 638.778 21.3599 639.217 21.2555C640.882 20.8974 641.776 23.3121 642.909 23.3443C642.079 23.7253 640.845 22.2792 639.969 21.8844C639.745 21.7977 639.503 21.7618 639.263 21.7793C639.023 21.7967 638.79 21.8671 638.58 21.9854C638.087 22.2269 637.647 22.5622 637.282 22.9724Z" fill="#282C3C"/>
<path d="M640.29 22.3939C640.266 22.5482 640.197 22.6919 640.092 22.8079C639.988 22.9239 639.852 23.0072 639.702 23.0476C639.551 23.0881 639.392 23.0841 639.243 23.036C639.095 22.9879 638.963 22.8979 638.865 22.7768C638.767 22.6556 638.705 22.5085 638.688 22.3533C638.671 22.198 638.7 22.0412 638.77 21.9017C638.84 21.7622 638.949 21.646 639.084 21.5672C639.219 21.4884 639.373 21.4502 639.529 21.4574C639.641 21.4683 639.749 21.5012 639.848 21.5543C639.947 21.6074 640.034 21.6796 640.105 21.7667C640.176 21.8537 640.229 21.954 640.26 22.0617C640.292 22.1694 640.302 22.2823 640.29 22.3939Z" fill="#282C3C"/>
<path d="M634.205 18.6111C634.384 18.4964 632.949 17.0503 631.224 16.885C629.5 16.7197 627.639 18.6111 627.639 18.6111C627.639 18.6111 630.179 17.0962 631.247 17.5874C632.316 18.0786 633.21 19.2584 634.205 18.6111Z" fill="#282C3C"/>
<path d="M631.848 2.72233C628.175 3.1401 622.356 2.2403 619.646 8.24509C618.045 11.6515 614.767 18.2255 614.767 29.9C614.767 47.2946 598.007 54.998 598.007 54.998L605.353 58.5513L609.741 54.998L606.751 61.3884L618.797 62.5912L619.311 54.2589L621.801 63.7343L627.432 62.5912C627.432 62.5912 625.213 34.1189 624.97 23.3718C624.988 23.3958 625.008 23.4188 625.029 23.4407C625.029 23.4407 624.979 22.0589 624.979 20.273V20.2593C625.011 19.7359 625.011 19.2034 624.992 18.6617C624.993 17.084 625.106 15.5083 625.332 13.9469C625.868 11.0042 626.95 9.50298 629.592 8.24051C632.233 6.97803 641.684 10.5726 641.684 10.5726C641.349 5.10038 635.521 2.29998 631.848 2.72233Z" fill="#282C3C"/>
<path d="M636.768 3.71389C641.386 4.73305 642.785 11.8488 646.558 15.6363C650.332 19.4237 649.378 24.8822 647.576 28.4906C645.774 32.0989 642.89 29.753 642.89 29.753C642.89 29.753 644.394 30.5932 645.352 27.5908C646.311 24.5884 644.632 22.247 639.533 20.5622C634.434 18.8774 629.578 8.24963 629.578 8.24963C629.455 6.16998 632.146 2.69014 636.768 3.71389Z" fill="#282C3C"/>
<path d="M625.983 23.9825C625.983 23.9825 624.699 18.4046 622.562 19.7543C620.426 21.1041 622.723 27.2741 624.713 27.2741C626.703 27.2741 625.983 23.9825 625.983 23.9825Z" fill="#DFB48F"/>
<path d="M623.906 20.9251C623.906 20.9251 627.066 25.9933 624.897 25.4333C622.737 24.8732 621.879 19.984 623.906 20.9251Z" fill="#E5BE9C"/>
<path d="M631.88 25.7041C631.66 26.3652 630.454 26.5534 629.184 26.1311C627.914 25.7087 627.066 24.8272 627.286 24.1708C627.506 23.5143 628.712 23.3215 629.982 23.7438C631.252 24.1662 632.101 25.0476 631.88 25.7041Z" fill="#DFB48F"/>
<path d="M642.11 25.3736C642.207 26.0025 641.381 26.6498 640.271 26.8151C639.162 26.9804 638.185 26.6131 638.089 25.9842C637.992 25.3552 638.813 24.7079 639.923 24.5427C641.033 24.3774 642.014 24.7492 642.11 25.3736Z" fill="#DFB48F"/>
<path d="M416.784 164.214L418.054 164.682L420.641 157.64C420.215 157.451 419.823 157.194 419.48 156.877L416.784 164.214Z" fill="#18AEE3"/>
<path d="M417.627 148.692H414.592V163.865H417.627V148.692Z" fill="white"/>
<path d="M417.627 148.692H414.592V156.602H417.627V148.692Z" fill="#13447A"/>
<path d="M415.321 163.947L413.331 164.31L410.323 147.889V143.61L412.313 147.526L415.321 163.947Z" fill="#18AEE3"/>
<path d="M421.117 161.932H412.028V178.362H421.117V161.932Z" fill="#EEE942"/>
<path d="M416.702 151.763H415.908V160.316H416.702V151.763Z" fill="#13447A"/>
<path d="M421.755 150.68L421.599 151.093C418.926 149.968 420.292 154.679 419.838 154.936C419.595 155.197 419.54 155.041 419.6 155.128C419.544 155.07 419.469 155.036 419.388 155.033C419.308 155.03 419.23 155.059 419.171 155.112C419.111 155.166 419.075 155.241 419.069 155.321C419.064 155.401 419.09 155.48 419.141 155.542C419.238 155.643 419.365 155.712 419.503 155.739C419.641 155.765 419.784 155.747 419.912 155.688L419.472 156.878C419.814 157.194 420.206 157.451 420.632 157.64L423.016 151.148L421.755 150.68ZM421.228 151.212C421.335 151.198 421.443 151.203 421.549 151.226L420.632 153.728C420.558 152.567 420.32 151.304 421.228 151.212Z" fill="#18AEE3"/>
<path d="M247.749 163.984L249.019 164.452L251.605 157.41C251.18 157.223 250.788 156.967 250.445 156.653L247.749 163.984Z" fill="#18AEE3"/>
<path d="M248.598 148.458H245.562V163.631H248.598V148.458Z" fill="white"/>
<path d="M248.598 148.458H245.562V156.363H248.598V148.458Z" fill="#2B3843"/>
<path d="M246.291 163.713L244.301 164.08L241.293 147.659V143.38L243.283 147.292L246.291 163.713Z" fill="#18AEE3"/>
<path d="M252.087 161.698H242.994V178.362H252.087V161.698Z" fill="#EEE942"/>
<path d="M247.676 151.529H246.883V160.082H247.676V151.529Z" fill="#2B3843"/>
<path d="M252.724 150.45L252.573 150.868C249.895 149.739 251.262 154.454 250.812 154.711C250.565 154.972 250.514 154.816 250.574 154.903C250.519 154.844 250.443 154.809 250.362 154.805C250.281 154.802 250.202 154.83 250.142 154.885C250.083 154.939 250.047 155.015 250.042 155.096C250.038 155.177 250.066 155.256 250.12 155.317C250.217 155.418 250.344 155.487 250.482 155.513C250.62 155.54 250.763 155.522 250.89 155.464L250.45 156.657C250.793 156.972 251.185 157.228 251.61 157.415L253.995 150.923L252.724 150.45ZM252.197 150.983C252.304 150.969 252.413 150.973 252.518 150.997L251.601 153.499C251.528 152.333 251.285 151.075 252.197 150.983Z" fill="#18AEE3"/>
</svg>
